<svg id="Layer_1" data-name="Layer 1" xmlns="http://www.w3.org/2000/svg" width="271" height="487" viewBox="0 0 271 487"><defs><style>.cls-1{fill:#ff0;}.cls-2{fill:#fa0;}.cls-3{fill:#231f20;}.cls-4{fill:#b4fdff;}.cls-5{fill:#c69c6d;}.cls-6{fill:none;stroke:#000;}.cls-11,.cls-6{stroke-miterlimit:10;}.cls-7{fill:#211c03;}.cls-11,.cls-8{fill:#fff;}.cls-9{fill:#ffb4fb;}.cls-10{fill:#a67c52;}.cls-11{stroke:#b4fdff;opacity:0.64;}.cls-12{fill:#101540;}.cls-13{fill:#605e5e;}.cls-14{fill:#b40023;}.cls-15{fill:#2b3672;}</style></defs><title>bamse</title><path class="cls-1" d="M175.84,114.54C175.73,86,192.28,25.08,213.43,25s38.87,60.74,39,89.25S235.47,165.94,214.32,166,176,143.05,175.84,114.54Z"/><path class="cls-2" d="M184.69,123.72c-.1-25,12.62-78.27,28.9-78.34s29.95,53.17,30,78.11-13,45.22-29.3,45.28S184.78,148.66,184.69,123.72Z"/><rect class="cls-3" x="106.37" y="435.94" width="15.97" height="35.25" rx="7.99"/><rect class="cls-3" x="139.97" y="435.94" width="15.97" height="35.25" rx="7.99"/><ellipse class="cls-4" cx="129.23" cy="212.02" rx="84.56" ry="69.68"/><ellipse class="cls-5" cx="129.36" cy="224.41" rx="63.76" ry="55.64"/><path class="cls-6" d="M129.5,242.59a13.77,13.77,0,1,1-27.54,0"/><path class="cls-6" d="M157,242.59a13.77,13.77,0,1,1-27.54,0"/><polyline class="cls-7" points="141.19 232.17 129.46 243.81 117.82 232.08"/><ellipse class="cls-8" cx="115.73" cy="213.39" rx="7.71" ry="9.36"/><ellipse class="cls-8" cx="143.27" cy="213.39" rx="7.71" ry="9.36"/><ellipse cx="143.52" cy="214.5" rx="2.45" ry="4.41"/><ellipse class="cls-9" cx="98.38" cy="229.64" rx="4.68" ry="6.89" transform="translate(-150.76 248.27) rotate(-71.09)"/><ellipse class="cls-9" cx="158.97" cy="229.64" rx="6.89" ry="4.68" transform="translate(-60.78 57.26) rotate(-17.19)"/><path class="cls-5" d="M74.1,200.79c-7.52-9.56-7.23-22.35.66-28.55s20.39-3.49,27.92,6.07"/><path class="cls-5" d="M157.07,177.08c8.07-9.11,20.71-11.09,28.22-4.43s7.05,19.44-1,28.55"/><path class="cls-10" d="M141.51,209.44a10.16,10.16,0,0,1,9.47,3.91c0-5.15-3.46-9.32-7.71-9.32s-7.49,3.93-7.69,8.88A9.91,9.91,0,0,1,141.51,209.44Z"/><path class="cls-4" d="M61.16,174.46C57,177,43,194.92,51.44,197.7a1.5,1.5,0,0,0,1.69-.69,36,36,0,0,1,6.38-9.45c1.32-1.41-.8-3.53-2.12-2.12a38.31,38.31,0,0,0-6.85,10.05l1.7-.69c-1.67-.54,3.14-9.07,3.93-10.45,1.69-2.9,3.58-5.52,6.5-7.3,1.65-1,.15-3.6-1.51-2.59Z"/><path class="cls-11" d="M70.84,171.25c-3.11,1.5-8,8.24-9.73,11.2-4.18,6.91-8.17,14.34-8.45,22.41-.07,1.88.24,4.07,1.84,5a3.78,3.78,0,0,0,3.8-.16,7.32,7.32,0,0,0,2.58-3c2.66-5,2.11-11.14,3.91-16.54,1.29-3.86,3.74-7.22,6.15-10.5l3.41-4.64c.64-.88,1.33-1.93,1.05-3a2.5,2.5,0,0,0-2.77-1.59,6.33,6.33,0,0,0-3.06,1.57,32.2,32.2,0,0,0-6.33,6.8"/><ellipse class="cls-12" cx="129.23" cy="360.2" rx="61.97" ry="84.01"/><rect class="cls-13" x="101.96" y="276.19" width="55.09" height="11.02" rx="5.51"/><ellipse class="cls-8" cx="129.78" cy="356.62" rx="24.51" ry="28.64"/><rect class="cls-2" x="104.16" y="351.9" width="51.23" height="8.89" rx="4.18"/><polygon class="cls-14" points="119.78 369.2 121.58 358.6 113.87 351.11 124.5 349.55 129.24 339.9 134.02 349.53 144.66 351.06 136.97 358.57 138.81 369.16 129.29 364.18 119.78 369.2"/><path class="cls-3" d="M95.81,471.2V461.15a4.84,4.84,0,0,1,4.82-4.83h16.89a4.84,4.84,0,0,1,4.82,4.83V471.2"/><path class="cls-3" d="M129.41,471.2V461.15a4.84,4.84,0,0,1,4.83-4.83h16.88a4.84,4.84,0,0,1,4.82,4.83V471.2"/><path class="cls-12" d="M166.88,309.85c-14.24-19.34-3-27.15,11.41-48.17s22.76-40.68,40.84-28c17.67,12.43,5.23,28.06-9.2,49.08S185.45,335.05,166.88,309.85Z"/><path class="cls-15" d="M217.77,232.65c7,4,10.23,11.74,9.12,14.9-1.41,4-8.68,2-15.67-2s-12.7-10.22-10.69-12.84C203.18,229.24,210.78,228.64,217.77,232.65Z"/><path class="cls-12" d="M93,286.07c20-.51-2.46,27.2-20.79,44.92S41.75,366.3,26.57,350.23C11.74,334.52,29,323,47.37,305.32S72.58,286.6,93,286.07Z"/><path class="cls-15" d="M24.36,347.93c-5.22-6.32-3.49-15.18-1-17.45,3.16-2.89,8.61,2.32,12.89,9.15s6.37,15,3.37,16.37C35.62,357.81,29.49,354.14,24.36,347.93Z"/><ellipse cx="115.42" cy="214.5" rx="2.45" ry="4.41"/><path class="cls-10" d="M114,209.44a10.16,10.16,0,0,1,9.47,3.91c0-5.15-3.46-9.32-7.71-9.32s-7.49,3.93-7.69,8.88A9.91,9.91,0,0,1,114,209.44Z"/><path class="cls-2" d="M225.9,220.56c0,19.77-5.18,35.8-11.57,35.8s-11.56-16-11.56-35.8-6.06-35.81,12.11-35.81C228.66,184.75,225.9,200.78,225.9,220.56Z"/><path class="cls-2" d="M256.75,144c2.57,2.57.78,27.71-1.79,30.29L218.73,210.5a6.63,6.63,0,0,1-9.35,0l-36.22-36.22c-2.57-2.58-4.36-27.72-1.79-30.29"/><rect class="cls-14" x="169.71" y="142.88" width="88.14" height="4.96" rx="2.48"/><ellipse class="cls-8" cx="213.78" cy="182.94" rx="12.12" ry="14.16"/><polygon class="cls-14" points="209.73 189.28 210.54 184.5 207.07 181.13 211.85 180.43 213.99 176.09 216.14 180.42 220.93 181.11 217.47 184.49 218.29 189.26 214.01 187.02 209.73 189.28"/><path class="cls-15" d="M220.77,236.37c3.18-.16,6.07,4.8,6.48,8.08.52,4.19-2.28,6.18-5.46,6.34s-6.49-2.23-6.48-5.51C215.32,241,217.58,236.53,220.77,236.37Z"/></svg>
