<svg id="Layer_1" data-name="Layer 1" xmlns="http://www.w3.org/2000/svg" width="707" height="396" viewBox="0 0 707 396"><defs><style>.cls-1{fill:#b4fdff;}.cls-2{fill:#fff;stroke:#b4fdff;stroke-miterlimit:10;opacity:0.64;}.cls-3{fill:#101540;}</style></defs><title>game_over</title><rect class="cls-1" x="34" y="19.87" width="646" height="338.91" rx="82.96"/><path class="cls-2" d="M135.32,51.68C155,45.83,178.8,40,190.89,56.48c1.29,1.77,3.19,11.45,2.34,13.47a6.61,6.61,0,0,1-3.42,3c-11.71,5.84-25.39,5.46-38.45,6.46-15.94,1.23-32.74,5.29-43.63,16.94-11.06,11.84-13.82,29.1-14.12,45.27-.1,5.23,0,10.56-1.62,15.54S86.67,166.8,81.56,168c-15.71,3.59-20.27-18.63-20.12-29.5.17-12.11,5.52-24.7,11.24-35.21C85.91,79,108.63,59.64,135.32,51.68Z"/><path class="cls-3" d="M150.58,206.12q-7-6.28-7-18.31t7.27-18.6q7.27-6.42,21.08-6.42a48.48,48.48,0,0,1,15.3,2.17v13.67a40.39,40.39,0,0,0-14.18-2.24q-6.37,0-9.71,2.72t-3.34,8.7q0,5.83,2.67,8.41c1.77,1.72,4.46,2.57,8.06,2.57a19.7,19.7,0,0,0,5.7-.74v-4.93h-8.78v-9.79h22.2v24.5a29.12,29.12,0,0,1-8,3.29,43.15,43.15,0,0,1-11,1.27Q157.55,212.39,150.58,206.12Z"/><path class="cls-3" d="M211.4,163.54h16.88l18.6,48.1h-16.8l-3.75-9.56h-13l-3.67,9.56h-16.8Zm13,27.34-4.58-11.66-4.5,11.66Z"/><path class="cls-3" d="M249.5,163.54H265l10.95,22.18,10.8-22.18h15.45v48.1H286V191.18l-6,12.25h-8.4l-6-12.25v20.46H249.5Z"/><path class="cls-3" d="M308.15,163.54h37.57v11.87H324.27v6.13H343v12.17H324.27v6.06h21.45v11.87H308.15Z"/><path class="cls-3" d="M378.72,206.53q-6.37-5.86-6.38-18.86,0-13.15,6.38-19t18.9-5.86q12.53,0,18.9,5.86t6.37,19q0,13-6.37,18.86t-18.9,5.86Q385.1,212.39,378.72,206.53Zm25.61-10.35c1.38-1.74,2.06-4.58,2.06-8.51q0-6.13-2-8.67t-6.75-2.54q-4.72,0-6.79,2.54t-2.06,8.67q0,6,2.06,8.55c1.38,1.72,3.64,2.57,6.79,2.57S403,197.92,404.33,196.18Z"/><path class="cls-3" d="M421,163.54h16.8l10.12,29.28,10.2-29.28H475l-18.6,48.1H439.54Z"/><path class="cls-3" d="M479.51,163.54h37.57v11.87H495.64v6.13h18.67v12.17H495.64v6.06h21.44v11.87H479.51Z"/><path class="cls-3" d="M521.21,163.54h26.1q8.78,0,13.27,4.82t4.5,12.73a15.34,15.34,0,0,1-2.36,8.41,18.47,18.47,0,0,1-6.34,6,8.48,8.48,0,0,1,2.4,3.28l5.63,12.85h-16.8l-5-11.13a4,4,0,0,0-1.16-1.57,3.27,3.27,0,0,0-1.84-.44h-2.33v13.14H521.21Zm22,22.56a5.78,5.78,0,0,0,4-1.27,4.82,4.82,0,0,0,1.39-3.74c0-3.38-1.68-5.08-5-5.08h-6.3V186.1Z"/></svg>
