<svg id="Layer_1" data-name="Layer 1" xmlns="http://www.w3.org/2000/svg" width="211" height="178" viewBox="0 0 211 178"><defs><style>.cls-1{fill:#b4fdff;}</style></defs><title>liv_blaa</title><path class="cls-1" d="M107.69,145.4,56.35,90.91a30.09,30.09,0,0,1,1.26-42.42h0a33,33,0,0,1,46.55,1.38L146.68,95a11.69,11.69,0,0,1-.49,16.48l-36.07,34A1.72,1.72,0,0,1,107.69,145.4Z"/><path class="cls-1" d="M66.54,99.58,121.25,48a30.1,30.1,0,0,1,42.42,1.26h0a33,33,0,0,1-1.38,46.55l-45.36,42.74a11.71,11.71,0,0,1-16.48-.49L66.47,102A1.72,1.72,0,0,1,66.54,99.58Z"/></svg>
