<svg id="Layer_1" data-name="Layer 1" xmlns="http://www.w3.org/2000/svg" width="215" height="178" viewBox="0 0 215 178"><defs><style>.cls-1{fill:#c9c9c9;}</style></defs><title>liv_graa</title><path class="cls-1" d="M107,141.46,53.61,86.1a30.93,30.93,0,0,1,.78-43.61h0a33.93,33.93,0,0,1,47.84.86L146.48,89.2a12,12,0,0,1-.3,16.94l-36.65,35.37A1.78,1.78,0,0,1,107,141.46Z"/><path class="cls-1" d="M64.19,94.88l55.58-53.63a30.93,30.93,0,0,1,43.61.78h0a33.93,33.93,0,0,1-.86,47.84l-46.08,44.47A12,12,0,0,1,99.5,134L64.14,97.39A1.77,1.77,0,0,1,64.19,94.88Z"/></svg>
