<svg id="Layer_1" data-name="Layer 1" xmlns="http://www.w3.org/2000/svg" width="473" height="421" viewBox="0 0 473 421"><defs><style>.cls-1{fill:#b4fdff;}.cls-2{fill:#101540;}.cls-3{fill:#fff;stroke:#b4fdff;stroke-miterlimit:10;opacity:0.64;}</style></defs><title>play</title><circle class="cls-1" cx="235" cy="214" r="159"/><path class="cls-2" d="M186.85,153l130.47,66.25a2.58,2.58,0,0,1-.2,4.71L186.85,276"/><path class="cls-3" d="M158.56,91.91c-9.46,3.24-25.67,21-31.8,28.9-14.36,18.46-28.36,38.48-31.94,61.6-.84,5.38-.69,11.78,3.6,15.13,3,2.37,7.46,2.4,11,.83s6.26-4.52,8.45-7.69c9.35-13.57,9.85-31.35,16.87-46.25,5-10.68,13.21-19.5,21.27-28.13l11.37-12.19c2.16-2.31,4.48-5.08,4-8.22-.45-3.34-4.06-5.53-7.43-5.51s-6.48,1.69-9.34,3.48a93.18,93.18,0,0,0-20.52,17.41"/></svg>
