<svg id="Layer_1" data-name="Layer 1" xmlns="http://www.w3.org/2000/svg" width="211" height="195" viewBox="0 0 211 195"><defs><style>.cls-1{fill:#b4fdff;}.cls-2{fill:#fff;stroke:#b4fdff;stroke-miterlimit:10;opacity:0.64;}</style></defs><title>point_bubble</title><rect class="cls-1" x="24.19" y="12.24" width="165.92" height="165.92" rx="82.96"/><path class="cls-2" d="M87.13,32.21C98,29,111.21,25.71,117.91,34.88c.71,1,1.76,6.36,1.3,7.49a3.66,3.66,0,0,1-1.9,1.66c-6.48,3.25-14.07,3-21.3,3.6-8.83.68-18.13,2.94-24.17,9.42S64.19,73.24,64,82.23c0,2.9,0,5.87-.9,8.64s-2.94,5.36-5.78,6c-8.69,2-11.22-10.36-11.14-16.4.09-6.74,3.06-13.74,6.23-19.59C59.76,47.38,72.34,36.63,87.13,32.21Z"/></svg>
