<svg id="Layer_1" data-name="Layer 1" xmlns="http://www.w3.org/2000/svg" width="206" height="282" viewBox="0 0 206 282"><defs><style>.cls-1{fill:#ff0;}.cls-2{fill:#fa0;}.cls-3{fill:#f92b2b;}.cls-4{fill:#efd460;}.cls-5{fill:#a7def9;}</style></defs><title>raket_to</title><path class="cls-1" d="M108,64.83c11.19-19,46.29-53,60.38-44.69s1.85,55.75-9.35,74.76-31.69,27.68-45.78,19.38S96.82,83.84,108,64.83Z"/><path class="cls-2" d="M110.28,74.43c9.79-16.63,39.32-47.07,50.17-40.67S159.36,81,149.56,97.57,123,122.5,112.18,116.11,100.48,91.06,110.28,74.43Z"/><path class="cls-3" d="M165.62,120.76,118.91,201.3A64.89,64.89,0,0,1,104,219a102.31,102.31,0,0,1-22.18,13.87L29.14,256.91,25.6,196.57c.23-8.17.45-11.08,1.53-14.59,1.6-5.23.11-.17,4.54-14.91a126,126,0,0,1,9.09-21.42L84.57,73.28"/><ellipse class="cls-4" cx="27.87" cy="259.46" rx="9.27" ry="8.31" transform="translate(-209.83 151.78) rotate(-59.5)"/><polyline class="cls-4" points="133.31 176.61 189.24 127.66 185.37 83.17"/><polyline class="cls-4" points="51.25 128.27 66.95 55.62 107.75 37.44"/><ellipse class="cls-5" cx="66.11" cy="194.17" rx="15.52" ry="13.92" transform="translate(-134.75 152.58) rotate(-59.5)"/><polyline class="cls-4" points="91.4 153.86 114.99 91.38 132.53 101.22"/><polyline class="cls-4" points="146.39 57.13 132.41 101.64 114.87 91.59"/></svg>
