<svg id="Layer_1" data-name="Layer 1" xmlns="http://www.w3.org/2000/svg" width="233" height="319" viewBox="0 0 233 319"><defs><style>.cls-1{fill:#ff0;}.cls-2{fill:#fa0;}.cls-3{fill:#f92b2b;}.cls-4{fill:#efd460;}.cls-5{fill:#a7def9;}</style></defs><title>raket</title><path class="cls-1" d="M68.55,95.52C63,74.16,63.81,25.31,79.64,21.22s40.74,38.11,46.26,59.47-2.84,42-18.68,46.08S74.07,116.87,68.55,95.52Z"/><path class="cls-2" d="M76.94,100.71C72.1,82,71.46,39.62,83.65,36.47s32.6,34.14,37.43,52.82-1.13,36.39-13.32,39.54S81.77,119.39,76.94,100.71Z"/><path class="cls-3" d="M148.83,94.33l23.92,90a64.85,64.85,0,0,1,1.95,23,102.18,102.18,0,0,1-5.88,25.5l-20.23,54.25L103.42,247c-5.61-5.95-7.51-8.16-9.23-11.4-2.56-4.83,0-.2-7.33-13.75a125.42,125.42,0,0,1-8.72-21.58l-20.2-82.15"/><ellipse class="cls-4" cx="149.5" cy="289.81" rx="8.31" ry="9.27" transform="translate(-67.79 46.66) rotate(-14.5)"/><polyline class="cls-4" points="165.47 156.67 170.41 82.51 136.21 53.78"/><polyline class="cls-4" points="73.27 180.51 33 118.04 48.99 76.34"/><ellipse class="cls-5" cx="130.37" cy="216.61" rx="13.92" ry="15.52" transform="translate(-50.08 39.54) rotate(-14.5)"/><polyline class="cls-4" points="119.75 170.22 92.25 109.36 111.61 103.91"/><polyline class="cls-4" points="90.24 62.93 111.83 104.3 92.31 109.59"/></svg>
