<svg id="Layer_1" data-name="Layer 1" xmlns="http://www.w3.org/2000/svg" width="689" height="744" viewBox="0 0 689 744"><defs><style>.cls-1{fill:#b4fdff;}.cls-2{fill:#fff;stroke:#b4fdff;stroke-miterlimit:10;opacity:0.64;}.cls-3{fill:#101540;}</style></defs><title>settings_menu</title><rect class="cls-1" x="21" y="24.58" width="648.27" height="694.42" rx="82.96"/><path class="cls-2" d="M133,56.63c19.71-5.9,43.63-11.78,55.76,4.83C190,63.25,191.93,73,191.08,75a6.62,6.62,0,0,1-3.43,3c-11.75,5.89-25.49,5.51-38.59,6.52-16,1.23-32.85,5.32-43.78,17.06C94.18,113.56,91.42,131,91.11,147.24c-.1,5.27,0,10.65-1.63,15.66S84.15,172.61,79,173.79C63.26,177.41,58.67,155,58.83,144.07c.16-12.2,5.53-24.89,11.28-35.48C83.38,84.12,106.19,64.64,133,56.63Z"/><path class="cls-3" d="M158.29,215.65h10.55l7.48,15.21,7.37-15.21h10.55v33h-11v-14l-4.1,8.4H173.4l-4.1-8.4v14h-11Z"/><path class="cls-3" d="M205.79,247.61a12.19,12.19,0,0,1-7.71-11.83V215.65h11V234.5q0,5.33,5,5.32c3.34,0,5-1.77,5-5.32V215.65h11v20.13a12.19,12.19,0,0,1-7.71,11.83,23.39,23.39,0,0,1-16.64,0Z"/><path class="cls-3" d="M238.56,248.58a20.51,20.51,0,0,1-5.25-1.59v-8.6a28.26,28.26,0,0,0,5.33,1.84,22.16,22.16,0,0,0,5.27.72,8.84,8.84,0,0,0,3.2-.43,1.54,1.54,0,0,0,1-1.52,1.67,1.67,0,0,0-1-1.51,24.15,24.15,0,0,0-3.64-1.4c-.51-.14-1.16-.35-1.94-.62a20.22,20.22,0,0,1-5.17-2.43,7.7,7.7,0,0,1-2.67-3.15,11.49,11.49,0,0,1-.82-4.61q0-10.14,14.09-10.14a36.63,36.63,0,0,1,5.53.46,38.5,38.5,0,0,1,5.07,1.08v8.65a24,24,0,0,0-8.76-1.89,13.62,13.62,0,0,0-3.46.35c-.84.25-1.25.71-1.25,1.39a1.28,1.28,0,0,0,.54,1.07,4.65,4.65,0,0,0,1.53.72c.67.21,1.84.53,3.51,1a18.8,18.8,0,0,1,6,2.61,8,8,0,0,1,2.87,3.54,13.61,13.61,0,0,1,.77,4.86,8.8,8.8,0,0,1-3.66,7.45q-3.66,2.74-10.68,2.74A36,36,0,0,1,238.56,248.58Z"/><path class="cls-3" d="M262.5,215.65h11v33h-11Z"/><path class="cls-3" d="M281.45,244.82q-4.87-4.33-4.87-12.57,0-8.4,4.79-12.76t14.16-4.35a30.76,30.76,0,0,1,5.43.44,27.06,27.06,0,0,1,4.81,1.35v9.58a23,23,0,0,0-9.47-2c-2.84,0-5,.62-6.38,1.84s-2.12,3.21-2.12,5.95.72,4.59,2.17,5.78,3.6,1.79,6.43,1.79a23.12,23.12,0,0,0,9.47-2v9.62a25.3,25.3,0,0,1-4.81,1.28,32.42,32.42,0,0,1-5.43.41Q286.32,249.14,281.45,244.82Z"/><path class="cls-3" d="M162.87,442a21.06,21.06,0,0,1-5.25-1.58v-8.61a29,29,0,0,0,5.33,1.85,22.7,22.7,0,0,0,5.27.71,8.91,8.91,0,0,0,3.21-.43,1.55,1.55,0,0,0,1-1.51,1.65,1.65,0,0,0-1-1.51,24.08,24.08,0,0,0-3.63-1.41c-.52-.14-1.16-.34-2-.62a20.38,20.38,0,0,1-5.17-2.43,7.6,7.6,0,0,1-2.66-3.15,11.29,11.29,0,0,1-.82-4.61q0-10.14,14.08-10.14a38,38,0,0,1,5.53.46,38.5,38.5,0,0,1,5.07,1.08v8.65a23.93,23.93,0,0,0-8.76-1.89,13,13,0,0,0-3.45.36q-1.26.36-1.26,1.38a1.31,1.31,0,0,0,.54,1.08,5,5,0,0,0,1.53.71c.67.21,1.84.53,3.51,1a18.44,18.44,0,0,1,6.05,2.61,8,8,0,0,1,2.86,3.53,13.41,13.41,0,0,1,.77,4.87,8.82,8.82,0,0,1-3.66,7.45q-3.66,2.73-10.68,2.74A36.15,36.15,0,0,1,162.87,442Z"/><path class="cls-3" d="M190.14,438.58q-4.35-4-4.35-12.93t4.35-13q4.35-4,12.91-4t12.9,4q4.35,4,4.35,13T216,438.58q-4.35,4-12.9,4T190.14,438.58Zm17.49-7.1c.94-1.19,1.41-3.14,1.41-5.83s-.46-4.78-1.38-5.94S205.2,418,203.05,418s-3.7.59-4.64,1.75-1.41,3.14-1.41,5.94.47,4.68,1.41,5.86,2.49,1.77,4.64,1.77S206.69,432.68,207.63,431.48Z"/><path class="cls-3" d="M230.83,441.06a12.19,12.19,0,0,1-7.71-11.83V409.11h11V428q0,5.32,5,5.33c3.34,0,5-1.78,5-5.33V409.11h11v20.12a12.19,12.19,0,0,1-7.71,11.83,23.24,23.24,0,0,1-16.64,0Z"/><path class="cls-3" d="M259,409.11h9.27l10.85,15.2v-15.2h11v33h-9.37L270,426.93v15.15H259Z"/><path class="cls-3" d="M294.25,409.11h15.21q8,0,12.29,4T326,425.8q0,16.29-16.54,16.28H294.25Zm13.88,24.58a9.17,9.17,0,0,0,3.68-.64,4.46,4.46,0,0,0,2.21-2.36,12.37,12.37,0,0,0,.76-4.89,13.3,13.3,0,0,0-.71-4.89,4.34,4.34,0,0,0-2.13-2.38,8.94,8.94,0,0,0-3.81-.67h-2.87v15.83Z"/><path class="cls-3" d="M345.46,409.11h25.65v8.14H356.47v4.2h12.75v8.34H356.47v4.15h14.64v8.14H345.46Z"/><path class="cls-3" d="M373.93,409.11h25.55v8H384.94v4.35h12.6v8.24h-12.6v12.34h-11Z"/><path class="cls-3" d="M401.53,409.11h25.55v8H412.54v4.35h12.6v8.24h-12.6v12.34h-11Z"/><path class="cls-3" d="M429.13,409.11h25.66v8.14H440.14v4.2h12.75v8.34H440.14v4.15h14.65v8.14H429.13Z"/><path class="cls-3" d="M461.44,438.27q-4.86-4.33-4.86-12.57,0-8.4,4.79-12.75t14.16-4.36A30.56,30.56,0,0,1,481,409a26.38,26.38,0,0,1,4.82,1.36V420a23.19,23.19,0,0,0-9.48-2c-2.83,0-5,.62-6.37,1.85s-2.13,3.21-2.13,5.94.73,4.59,2.18,5.78,3.59,1.8,6.43,1.8a23.13,23.13,0,0,0,9.47-2v9.63a26.88,26.88,0,0,1-4.81,1.28,33.52,33.52,0,0,1-5.43.41Q466.32,442.6,461.44,438.27Z"/><path class="cls-3" d="M495.7,417.15h-8.81v-8h28.68v8h-8.86v24.93h-11Z"/><path class="cls-3" d="M519.9,442a20.8,20.8,0,0,1-5.25-1.58v-8.61a28.73,28.73,0,0,0,5.33,1.85,22.63,22.63,0,0,0,5.27.71,8.88,8.88,0,0,0,3.2-.43,1.54,1.54,0,0,0,1-1.51,1.65,1.65,0,0,0-1-1.51,23.87,23.87,0,0,0-3.64-1.41c-.51-.14-1.16-.34-1.94-.62a20.47,20.47,0,0,1-5.18-2.43,7.67,7.67,0,0,1-2.66-3.15,11.29,11.29,0,0,1-.82-4.61q0-10.14,14.08-10.14a42.14,42.14,0,0,1,10.6,1.54v8.65a23.88,23.88,0,0,0-8.75-1.89,13.11,13.11,0,0,0-3.46.36c-.84.24-1.25.7-1.25,1.38a1.33,1.33,0,0,0,.53,1.08,5,5,0,0,0,1.54.71c.67.21,1.84.53,3.51,1a18.37,18.37,0,0,1,6,2.61,7.93,7.93,0,0,1,2.87,3.53,13.63,13.63,0,0,1,.77,4.87,8.82,8.82,0,0,1-3.66,7.45c-2.45,1.82-6,2.74-10.68,2.74A36,36,0,0,1,519.9,442Z"/></svg>
