<svg id="Layer_1" data-name="Layer 1" xmlns="http://www.w3.org/2000/svg" width="245" height="185" viewBox="0 0 245 185"><defs><style>.cls-1{fill:#b4fdff;}</style></defs><title>settings</title><path class="cls-1" d="M122.74,74.52l2,.32a11.93,11.93,0,0,1,2.4.62l.19.06.19.07c.2.07.53.2,1,.41l1.94.86L132,78.2a12.83,12.83,0,0,1,2.33,2.7l1.11,1.7.55,2s.07.25.18.77l.09.38.09.38a13.28,13.28,0,0,1,.34,2.13l.16,2-.45,2a12.53,12.53,0,0,1-.88,2.59l-.87,1.88-1.54,1.72a13.6,13.6,0,0,1-2.4,2.11L129,101.7l-1.94.6a13.1,13.1,0,0,1-2.43.5l-.2,0-.2,0c-.2,0-.56.06-1.1.08l-2.11.08-2-.54a12.93,12.93,0,0,1-3.27-1.39l-1.75-1-1.37-1.54a14.68,14.68,0,0,1-1.35-1.81l-1.11-1.78-.51-2c0-.15-.07-.3-.1-.45l-.11-.55-.14-.54a11.63,11.63,0,0,1-.26-1.38l-.28-2.08.38-2.08a13.58,13.58,0,0,1,.73-2.55l.75-1.9L112,79.78a13.12,13.12,0,0,1,1.93-1.94l1.61-1.3,2.13-.86a14,14,0,0,1,3.09-.86l2-.3M130.16,28H115.55V40.21a47.86,47.86,0,0,0-11.06,3l-6.7-11.45L85.18,39.17l6.71,11.45a48,48,0,0,0-7.15,7.17l-10.9-6.23L66.59,64.24l10.8,6.17a48.86,48.86,0,0,0-2.6,9.09L61.7,78.16l-1.54,15,14.27,1.46a49.65,49.65,0,0,0,1,5.12c.12.55.24,1.09.38,1.63l-12.72,4.49,5,14.22,13.62-4.81a49.39,49.39,0,0,0,4.85,6.47l-8.07,9.81,11.29,9.28,8-9.76a48.21,48.21,0,0,0,12.1,5.17l-1.65,12.95L122.73,151l1.68-13.13c1.34-.05,2.68-.14,4-.3a48.07,48.07,0,0,0,9-1.85l5.38,11,13.13-6.41-5.36-11a48.14,48.14,0,0,0,8.61-7.58l11,7.35L178.3,117l-11.05-7.35a48.21,48.21,0,0,0,3.28-9.58l12.52.82L184,86.3l-12.41-.81a48.57,48.57,0,0,0-1.21-7.59c-.2-.92-.42-1.83-.67-2.74l11.55-5.28L175.19,56.6,163.7,61.85a47.51,47.51,0,0,0-8.61-10L162.26,41l-12.21-8L142.78,44c-1.23-.55-2.47-1.05-3.72-1.49a48.48,48.48,0,0,0-8.9-2.28V28Z"/></svg>
