<svg id="Layer_1" data-name="Layer 1" xmlns="http://www.w3.org/2000/svg" width="368" height="384" viewBox="0 0 368 384"><defs><style>.cls-1{fill:#b4fdff;}.cls-2{fill:#fff;stroke:#b4fdff;opacity:0.64;}.cls-2,.cls-4{stroke-miterlimit:10;}.cls-3{fill:#101540;}.cls-4{fill:none;stroke:#101540;stroke-width:37px;}</style></defs><title>spil_igen</title><circle class="cls-1" cx="180" cy="189" r="159"/><path class="cls-2" d="M107.56,68.91c-9.46,3.24-25.67,21-31.8,28.9-14.36,18.46-28.36,38.48-31.94,61.6-.84,5.38-.69,11.78,3.6,15.13,3,2.37,7.46,2.4,11,.83s6.26-4.52,8.45-7.69c9.35-13.57,9.85-31.35,16.87-46.25,5-10.68,13.21-19.5,21.27-28.13l11.37-12.19c2.16-2.31,4.48-5.08,4-8.22-.45-3.34-4.06-5.53-7.43-5.51s-6.48,1.69-9.34,3.48A93.18,93.18,0,0,0,83.12,88.27"/><path class="cls-3" d="M122.14,303.61,108.4,228.24a1.69,1.69,0,0,1,1.61-2.63l69.7-8.36"/><path class="cls-4" d="M225.39,105a91.46,91.46,0,0,1,39.6,38.7c12.41,23.49,13.85,51.71,1.33,76.33-21,41.35-73.43,56.89-117,34.71"/></svg>
