<svg id="Layer_1" data-name="Layer 1" xmlns="http://www.w3.org/2000/svg" width="1080" height="1920" viewBox="0 0 1080 1920"><defs><style>.cls-1{fill:#081433;}.cls-2{fill:#27566e;}.cls-3{fill:#5d1be8;opacity:0.65;}.cls-4{fill:none;stroke:#1e0055;stroke-miterlimit:10;stroke-width:27px;}.cls-5{fill:#1e0055;}.cls-6{fill:#b6fffa;}.cls-7{fill:#101540;opacity:0.69;}.cls-8{fill:#8afffa;}.cls-9{fill:#fff;opacity:0.17;}.cls-10{fill:#15154f;opacity:0.63;}.cls-11{fill:#4d8f8c;}.cls-12{fill:#cdf9f6;}</style></defs><title>spil_baggrund</title><rect class="cls-1" y="-5" width="1080" height="1930"/><path class="cls-2" d="M1186.68,1813.44c0,234-306.58,423.78-684.76,423.78s-684.76-189.74-684.76-423.78S-388,1390.25,501.92,1389.66C1498,1389,1186.68,1579.39,1186.68,1813.44Z"/><path class="cls-3" d="M135.42,205.83c-11.21-40.73,20.93-85.1,71.79-99.09s101.16,7.69,112.37,48.43-20.93,85.1-71.79,99.09-101.16-7.69-112.37-48.43"/><path class="cls-4" d="M133.45,210.76C123,218,112,227,107,239c-1,4,3,8,6,9,43,6,82.5-13.5,121.5-26.5,30-14,56.5-28.5,82.5-50.5,1-1,17.5-14.5,18.5-15.5,0,0,26-13,25-37-1-2-4.5-3.5-6.5-4.5-15-2-30,3-44.38,7"/><path class="cls-5" d="M126.4,201a59.63,59.63,0,0,1,4.48,7.27c.89,1.72,3.48.2,2.59-1.51a58.88,58.88,0,0,0-4.48-7.27c-1.12-1.56-3.73-.06-2.59,1.51Z"/><path class="cls-5" d="M126.82,202.28a1.5,1.5,0,0,0,0-3,1.5,1.5,0,0,0,0,3Z"/><path class="cls-5" d="M127.37,202a1.5,1.5,0,0,0,0-3,1.5,1.5,0,0,0,0,3Z"/><path class="cls-5" d="M127.81,201.62a1.5,1.5,0,0,0,0-3,1.5,1.5,0,0,0,0,3Z"/><path class="cls-5" d="M128.61,201.2a1.5,1.5,0,0,0,0-3,1.5,1.5,0,0,0,0,3Z"/><path class="cls-5" d="M129.3,200.76a1.5,1.5,0,0,0,0-3,1.5,1.5,0,0,0,0,3Z"/><path class="cls-5" d="M130.12,200.24a1.5,1.5,0,0,0,0-3,1.5,1.5,0,0,0,0,3Z"/><path class="cls-5" d="M128.58,201.46c.59-.34,1.06-.85,1.63-1.21a6.52,6.52,0,0,1,1.86-.74l-1.9-1.45a15.85,15.85,0,0,0,.41,3.07,22.55,22.55,0,0,0,.35,3l2.51-1.46a5.66,5.66,0,0,1-1.88-3c-.48-1.86-3.38-1.07-2.89.8a8.3,8.3,0,0,0,2.65,4.29,1.51,1.51,0,0,0,2.5-1.46,19.84,19.84,0,0,1-.28-2.56,13.51,13.51,0,0,1-.37-2.67,1.51,1.51,0,0,0-1.9-1.44,12.33,12.33,0,0,0-2.26.85c-.72.39-1.25,1-1.95,1.4a1.5,1.5,0,0,0,1.52,2.59Z"/><path class="cls-5" d="M131.22,203.75a13.47,13.47,0,0,0,1.74,5.71c.77,1.54,3.19.46,2.74-1.16a10.9,10.9,0,0,1-.4-2.71h-3a20.07,20.07,0,0,0,.72,2.79,13.58,13.58,0,0,0,1.21,3c.88,1.72,3.47.2,2.59-1.52a10.16,10.16,0,0,1-.95-2.49,10.38,10.38,0,0,0-.27-1.1c0-.11-.33-1-.3-.67-.17-1.9-3.05-2-3,0a14.38,14.38,0,0,0,.51,3.51l2.74-1.16a10.15,10.15,0,0,1-1.33-4.19c-.05-1.93-3.05-1.94-3,0Z"/><path class="cls-5" d="M131.13,210c1.5,1.62,2.17,3.8,3.78,5.36,1.38,1.35,3.51-.77,2.12-2.12-1.58-1.53-2.27-3.74-3.78-5.36-1.31-1.42-3.43.7-2.12,2.12Z"/><path class="cls-5" d="M133.91,211.25c1.39,3.5,2.61,7,4.81,10.12,1.1,1.56,3.71.07,2.59-1.51-2.06-2.9-3.21-6.14-4.51-9.41-.7-1.78-3.6-1-2.89.8Z"/><path class="cls-5" d="M135,204.64l-.23-.9c-.5-1.91-3.19-1.06-2.9.8a2.87,2.87,0,0,0,.77,1.8c.87.67,2.75.39,2.56-1.06-.27-2.06-1-4.07-1.3-6.15-.23-1.89-3.24-1.92-3,0a27.91,27.91,0,0,0,.63,3.28c.13.54.17,1.09.28,1.63s.34.85.39,1.24l2.56-1.07c.16.31.2.33.11.07a2.45,2.45,0,0,1-.1-.54l-2.9.8.23.9c.48,1.87,3.38,1.08,2.9-.8Z"/><path class="cls-5" d="M132.14,199.37a1.5,1.5,0,0,0,0-3,1.5,1.5,0,0,0,0,3Z"/><path class="cls-5" d="M132.25,199.55a1.5,1.5,0,0,0,0-3,1.5,1.5,0,0,0,0,3Z"/><path class="cls-5" d="M132.31,200a1.5,1.5,0,0,0,0-3,1.5,1.5,0,0,0,0,3Z"/><path class="cls-5" d="M132.36,200.3a1.5,1.5,0,0,0,0-3,1.5,1.5,0,0,0,0,3Z"/><path class="cls-5" d="M132.24,199.25a1.5,1.5,0,0,0,0-3,1.5,1.5,0,0,0,0,3Z"/><path class="cls-5" d="M131.73,199.45a1.5,1.5,0,0,0,0-3,1.5,1.5,0,0,0,0,3Z"/><path class="cls-5" d="M312.29,131.18a4.36,4.36,0,0,0-.85.32c-1.37.63-.67,2.85.76,2.79a2.12,2.12,0,0,0,1.07-.29,1.51,1.51,0,0,0-1.15-2.75,12.66,12.66,0,0,0-2.28,1l2.05.54c-.36-.64-1-1-1.33-1.63a10.5,10.5,0,0,0-1.34-1.78c-1.26-1.46-3.38.67-2.12,2.12a10.34,10.34,0,0,1,1,1.46,4.64,4.64,0,0,0,.6.8c.18.19.45.32.58.54a1.53,1.53,0,0,0,2.05.54,8.44,8.44,0,0,1,1.56-.65l-1.15-2.74-.15.08.76-.2h-.17l.75,2.8.14,0c1.88-.45,1.08-3.34-.8-2.89Z"/><path class="cls-5" d="M309.24,129.07c-.45-.62-.85-1.14-1.36-1.73-1.1-1.27-3.32.41-2.36,1.82l1.14,1.66L309,129c-4.41-4.13-8.32-8.59-13.41-12-1.62-1.07-3.12,1.53-1.52,2.59,4.88,3.23,8.59,7.52,12.8,11.48,1.19,1.12,3.36-.35,2.36-1.81l-1.14-1.66-2.35,1.82.89,1.11c1.13,1.55,3.73.06,2.59-1.51Z"/><path class="cls-5" d="M305.91,108.05c-1.29.44-2.57.94-3.88,1.31a6.76,6.76,0,0,0-3,1.43c-1.42,1.32.71,3.44,2.12,2.12a7,7,0,0,1,2.53-.92c1-.33,2-.7,3-1,1.82-.62,1-3.52-.79-2.89Z"/><path class="cls-5" d="M305,112.7c1.57,3.55,1.41,7.16,2.22,10.86l2.74-1.15c-.85-2-1.37-4.09-2.2-6.08A19.21,19.21,0,0,1,306,112a1.5,1.5,0,0,0-1.45-1.1c-1,0-1.93.79-2.83,1.23a8.55,8.55,0,0,0-3,2.37c-.76.86-.34,2.71,1.06,2.56l6.18-.68-1.5-1.5c0,.36-3,2.8-3.44,3.14l2.12,2.13c.52-.56,1.46-1.92,2.2-2.1l-1.84-1.84-2,4.74c-.63,1.52,1.51,2.32,2.51,1.46l1.91-1.64-2.35-1.82c-.49.94-.94,1.87-1.36,2.84a1.51,1.51,0,0,0,2.36,1.82,13.55,13.55,0,0,0,2.12-2.74L304,119.69c-.34,1.44-1.48,3.77-.55,5.15a1.54,1.54,0,0,0,1.7.68,6.41,6.41,0,0,0,2.5-2.17l-2.51-1.46c-.49,1.49-1.34,2.93-.27,4.28a1.51,1.51,0,0,0,2.36-.3,14.67,14.67,0,0,1,1.16-1.78h-2.59a8.46,8.46,0,0,1,0,2.3,1.52,1.52,0,0,0,2.26,1.3,19.23,19.23,0,0,0,3.23-3.21l-2.51-.67.62,3.51c.33,1.9,3.22,1.09,2.89-.8l-.62-3.5a1.51,1.51,0,0,0-2.51-.67,15.46,15.46,0,0,1-2.62,2.74l2.26,1.3c0-1.27.26-2.69-.44-3.81a1.52,1.52,0,0,0-2.59,0,13.93,13.93,0,0,0-1.16,1.78l2.35-.31c.67.84.95-1.09,1-1.36a1.51,1.51,0,0,0-2.51-1.46l-1.17,1.4,1.7.69s.78-2.57.84-2.84a1.51,1.51,0,0,0-2.74-1.15,12.62,12.62,0,0,1-1.66,2.12l2.36,1.82c.42-1,.87-1.9,1.36-2.83a1.51,1.51,0,0,0-2.36-1.82l-1.91,1.64,2.5,1.46,2-4.74c.47-1.13-.86-2.08-1.85-1.85-1.49.35-2.52,1.79-3.52,2.86a1.5,1.5,0,0,0,2.12,2.13c1.25-1.09,4.57-3.28,4.32-5.27-.1-.73-.62-1.6-1.5-1.5l-6.18.68,1.06,2.56a7.34,7.34,0,0,1,2.18-1.73c.19-.11,1.5-1,1.55-1l-1.44-1.1c.32,2,1.32,3.32,2.08,5.26s1.32,4,2.14,5.89c.7,1.63,3.09.42,2.74-1.16-.88-4-.81-7.71-2.52-11.57-.78-1.76-3.36-.24-2.59,1.51Z"/><path class="cls-5" d="M313.22,130.84a7.22,7.22,0,0,0-1.58-2.5,8.51,8.51,0,0,1-1.66-1.89l.15,1.16,0-.13-2.21.9c1.4.68,2.46,2.17,4.14,2.18a1.74,1.74,0,0,0,1.74-1.78A6.14,6.14,0,0,0,312.7,126c-.89-1.71-3.48-.2-2.59,1.51.18.34.72,1.09.71,1.38l.2-.76-.07.13.9-.69c.41,0,.44,0,.11-.09l-.28-.17a4.86,4.86,0,0,1-.59-.42,10,10,0,0,0-1.63-1.11c-.78-.38-2-.14-2.2.89-.36,2.25,2.4,3.1,3.07,5s3.54,1,2.89-.8Z"/><path class="cls-5" d="M299.64,110.29a29.61,29.61,0,0,0-8.35,5,1.52,1.52,0,0,0,.3,2.36A9.28,9.28,0,0,1,293.8,119l1.82-2.35a20,20,0,0,1-2.09-1.26L292,117.94l3.47,2.07a1.5,1.5,0,0,0,1.52-2.59l-3.48-2.07c-1.68-1-3.09,1.51-1.51,2.59a20,20,0,0,0,2.09,1.26c1.42.74,3.2-1.23,1.81-2.36a12.48,12.48,0,0,0-2.81-1.78l.3,2.35a27.47,27.47,0,0,1,7.74-4.53c1.76-.79.24-3.38-1.51-2.59Z"/><path class="cls-5" d="M295.85,118.05a10.84,10.84,0,0,0,5-2.61l-2.36-1.81a22.69,22.69,0,0,0-2.38,4.1c-.45,1.17.85,2,1.85,1.85,1.39-.25,2.66-1.17,4.08-1.13l-1.29-2.26c-.69,1.17-2.48,1-2.62,2.7a1.75,1.75,0,0,0,1,1.69c.27.16,1.9.36,2,.6l1.05-1.84c-.69.12-1-1.44-1.14-1.87a1.5,1.5,0,0,0-2.89.79c.67,2.37,2.1,4.44,4.83,4a1.5,1.5,0,0,0,1-1.84,3.17,3.17,0,0,0-1.41-1.82c-.48-.28-1.69-.38-1.88-.54l.38,1.46c-.06.44-.27.29.27,0a6.92,6.92,0,0,0,.79-.48,4.12,4.12,0,0,0,1.23-1.33,1.51,1.51,0,0,0-1.3-2.25c-1.76,0-3.19.93-4.88,1.23l1.84,1.85a19.63,19.63,0,0,1,2.08-3.39c1-1.45-1.15-3-2.35-1.82a8,8,0,0,1-3.69,1.84c-1.88.44-1.09,3.33.79,2.89Z"/><polygon class="cls-6" points="216.09 1247.33 220.66 1232.09 210.49 1219.87 226.64 1219.31 235.44 1205.94 240.85 1220.83 256.47 1224.79 243.65 1234.55 244.5 1250.37 231.18 1241.52 216.09 1247.33"/><polygon class="cls-6" points="1031.23 895.14 1021.95 882.23 1006.06 882.84 1015.47 869.69 1010.24 854.56 1025.34 859.35 1038 849.39 1037.92 865.51 1050.97 874.47 1035.83 879.64 1031.23 895.14"/><polygon class="cls-6" points="533.14 966.56 541.07 940.16 523.43 918.97 551.44 917.99 566.7 894.82 576.08 920.62 603.14 927.5 580.93 944.42 582.4 971.83 559.3 956.49 533.14 966.56"/><path class="cls-7" d="M695.81,856.87c-48.79-1.55-98.69-5.72-145.54,8-52.68,15.4-97,52.19-149.59,68.06-15.46,26.61.23,62.64,25.9,79.62s57.95,19.68,88.69,21.06q62.41,2.81,124.92,1.16c35.53-.93,71.72-2.88,106,6.45,58.58,15.94,112.42,64.23,171.67,51,67.15-15,98.72-101.37,165.42-118.18,6.44-1.63,13.58-2.83,17.94-7.84,3.77-4.34,4.47-10.48,5-16.21,4.27-46.29,22-90.63-25.11-115.23-30-15.66-56.08-12.21-87.55-5.24C895.49,851.23,796.36,860.06,695.81,856.87Z"/><polygon class="cls-6" points="983.18 1325.3 975.77 1311.22 959.94 1309.64 971.07 1297.91 967.99 1282.21 982.28 1289.04 996.19 1280.92 993.89 1296.87 1005.58 1307.55 989.87 1310.58 983.18 1325.3"/><polygon class="cls-6" points="69.02 1040.27 67.92 1031.88 60.39 1028.02 68.03 1024.39 69.38 1016.03 75.19 1022.18 83.56 1020.87 79.51 1028.3 83.33 1035.85 75.01 1034.3 69.02 1040.27"/><polygon class="cls-8" points="239.22 452.19 224.84 435.71 203.11 438.21 214.34 419.44 205.25 399.55 226.57 404.44 242.68 389.64 244.62 411.43 263.67 422.18 243.55 430.76 239.22 452.19"/><path class="cls-7" d="M384,266.1c65.2,26.44,136.52,61.67,202.33,36.77,15.54-5.88,30.27-15.06,46.83-16.34,39.85-3.1,67.85,39.33,77.44,78.13s11.64,82.42,38.66,111.87c19.54,21.31,48.56,30.81,72.23,47.41s42.86,48.13,29.19,73.61c-11.45,21.34-39.62,26.71-63.81,25.71-91.41-3.77-178.54-63-268.38-45.7-28.37,5.46-54.74,18.35-82.55,26.18-94,26.45-193.38-6.65-291-9.46-70.8-2-150.34,9.44-204.74-35.91-57.59-48-57.25-134.93-52-209.71C-95.55,114,244.83,209.67,384,266.1Z"/><polygon class="cls-8" points="560.02 139.27 558.92 130.88 551.39 127.02 559.03 123.39 560.38 115.03 566.19 121.18 574.55 119.87 570.51 127.3 574.33 134.85 566.01 133.3 560.02 139.27"/><path class="cls-9" d="M948.93,1450.1c29.25,5.54,60,13.76,79,37.5.34,8.33-4,8.72-7.77,8.81-42.22,1-83.11-13.55-124.93-19.43-37-5.2-74.47-3.48-111.67-6-16.42-1.12-73.91,1-49.55-21.12,19.89-18.06,66.21-13.75,89.94-13.13A782.16,782.16,0,0,1,948.93,1450.1Z"/><path class="cls-10" d="M983.65,181.09a190.22,190.22,0,0,0,63.44,78.26c-23.68,4.64-44.76,18.33-62.43,34.77s-32.4,35.71-48,54.12c-1.75,2.07-3.66,4.22-6.26,5a13,13,0,0,1-6.57-.35c-9.85-2.38-20.35-6.31-28.64-12.27-9.42-6.77-7.73-9-4.86-20.14a251.56,251.56,0,0,1,20.7-53.7A255.69,255.69,0,0,1,943.24,219C946.33,215.39,983.55,180.84,983.65,181.09Z"/><polygon class="cls-6" points="887.99 377.46 894.76 354.17 879.41 335.39 903.65 334.63 916.77 314.22 924.98 337.05 948.44 343.22 929.27 358.08 930.65 382.3 910.59 368.66 887.99 377.46"/><path class="cls-11" d="M553,1780.5C414,1839,491,1865,414.5,1865S228,1870.67,228,1824s91.51-77,168-77S596,1762.4,553,1780.5Z"/><path class="cls-11" d="M898,1729c0,19-52.59,58-12,58s256-23,256-42-85.41-37-126-37S898,1710,898,1729Z"/><path class="cls-11" d="M257,1503c127.89,79.93-76.51,62-153,62s24-9.33,24-56,31.89-43.5,105-21C246,1492,233,1488,257,1503Z"/><circle class="cls-12" cx="770.5" cy="391.5" r="2.5"/><circle class="cls-12" cx="979" cy="498" r="2"/><circle class="cls-12" cx="609" cy="626" r="3"/><circle class="cls-12" cx="570" cy="258" r="2"/><circle class="cls-12" cx="384" cy="837" r="5"/><circle class="cls-12" cx="972.5" cy="740.5" r="4.5"/><circle class="cls-12" cx="57.5" cy="685.5" r="1.5"/><circle class="cls-12" cx="425" cy="433" r="1"/><circle class="cls-12" cx="123" cy="359" r="6"/><circle class="cls-12" cx="106" cy="33" r="11"/><circle class="cls-12" cx="930.5" cy="77.5" r="5.5"/><circle class="cls-12" cx="800.5" cy="109.5" r="2.5"/><circle class="cls-12" cx="823.5" cy="970.5" r="5.5"/><circle class="cls-12" cx="1008.5" cy="1007.5" r="2.5"/><circle class="cls-12" cx="865.5" cy="1262.5" r="2.5"/><circle class="cls-12" cx="539" cy="1245" r="8"/><circle class="cls-12" cx="594" cy="1112" r="2"/><circle class="cls-12" cx="309.5" cy="1049.5" r="3.5"/><circle class="cls-12" cx="56" cy="1123" r="4"/><circle class="cls-12" cx="395" cy="1361" r="3"/><circle class="cls-12" cx="219" cy="799" r="9"/><circle class="cls-12" cx="49.5" cy="1319.5" r="4.5"/></svg>
