<svg id="Layer_1" data-name="Layer 1" xmlns="http://www.w3.org/2000/svg" width="189" height="602" viewBox="0 0 189 602"><defs><style>.cls-1{fill:#b4fdff;}.cls-2{fill:#fff;stroke:#b4fdff;stroke-miterlimit:10;opacity:0.64;}.cls-3{fill:#101540;}</style></defs><title>tid</title><circle class="cls-1" cx="95.73" cy="86.21" r="63.76"/><path class="cls-2" d="M138.57,59.41c-1.31-3.78-8.46-10.26-11.63-12.71C119.52,41,111.47,35.38,102.19,34c-2.16-.32-4.72-.26-6.06,1.47a4.38,4.38,0,0,0-.32,4.4,8.54,8.54,0,0,0,3.1,3.38c5.45,3.73,12.58,3.91,18.57,6.7,4.29,2,7.84,5.27,11.31,8.49l4.9,4.54c.94.86,2.05,1.79,3.31,1.61a2.9,2.9,0,0,0,2.2-3,7.51,7.51,0,0,0-1.41-3.75,37.92,37.92,0,0,0-7-8.2"/><rect class="cls-1" x="66.17" y="103.06" width="58.95" height="476.4" rx="29.47" transform="translate(-1.23 0.35) rotate(-0.21)"/><rect class="cls-3" x="86" y="258.68" width="2.01" height="42.11" transform="translate(366.41 191.73) rotate(89.79)"/><rect class="cls-3" x="86.51" y="402.24" width="2.01" height="42.11" transform="translate(510.49 334.25) rotate(89.79)"/><rect class="cls-3" x="76.35" y="486.49" width="2.01" height="21.25" transform="translate(574.19 417.97) rotate(89.79)"/><rect class="cls-3" x="75.84" y="342.93" width="2.01" height="21.25" transform="translate(430.11 275.44) rotate(89.79)"/><rect class="cls-3" x="75.32" y="198.96" width="2.01" height="21.25" transform="translate(285.64 132.52) rotate(89.79)"/><rect class="cls-3" x="75.44" y="234.25" width="2.01" height="21.25" transform="translate(321.05 167.55) rotate(89.79)"/><rect class="cls-3" x="75.38" y="216.61" width="2.01" height="21.25" transform="translate(303.34 150.04) rotate(89.79)"/><rect class="cls-3" x="75.51" y="251.9" width="2.01" height="21.25" transform="translate(338.76 185.07) rotate(89.79)"/><rect class="cls-3" x="75.7" y="306.03" width="2.01" height="21.25" transform="translate(393.09 238.82) rotate(89.79)"/><rect class="cls-3" x="75.64" y="287.59" width="2.01" height="21.25" transform="translate(374.58 220.5) rotate(89.79)"/><rect class="cls-3" x="75.77" y="324.48" width="2.01" height="21.25" transform="translate(411.6 257.13) rotate(89.79)"/><rect class="cls-3" x="75.96" y="377.81" width="2.01" height="21.25" transform="translate(465.12 310.08) rotate(89.79)"/><rect class="cls-3" x="76.03" y="396.26" width="2.01" height="21.25" transform="translate(483.64 328.39) rotate(89.79)"/><rect class="cls-3" x="75.89" y="359.37" width="2.01" height="21.25" transform="translate(446.61 291.77) rotate(89.79)"/><rect class="cls-3" x="76.22" y="449.59" width="2.01" height="21.25" transform="translate(537.16 381.34) rotate(89.79)"/><rect class="cls-3" x="76.29" y="468.04" width="2.01" height="21.25" transform="translate(555.67 399.66) rotate(89.79)"/><rect class="cls-3" x="76.15" y="431.15" width="2.01" height="21.25" transform="translate(518.65 363.03) rotate(89.79)"/><rect class="cls-3" x="76.42" y="504.13" width="2.01" height="21.25" transform="translate(591.89 435.49) rotate(89.79)"/><rect class="cls-3" x="76.48" y="521.37" width="2.01" height="21.25" transform="translate(609.2 452.61) rotate(89.79)"/><rect class="cls-3" x="76.54" y="537.81" width="2.01" height="21.25" transform="translate(625.7 468.93) rotate(89.79)"/><rect class="cls-3" x="75.26" y="183.73" width="2.01" height="21.25" transform="translate(270.34 117.39) rotate(89.79)"/><rect class="cls-3" x="75.21" y="168.09" width="2.01" height="21.25" transform="translate(254.65 101.86) rotate(89.79)"/></svg>
