<svg id="Layer_1" data-name="Layer 1" xmlns="http://www.w3.org/2000/svg" width="1080" height="1920" viewBox="0 0 1080 1920"><defs><style>.cls-1{fill:#081433;stroke:#000;stroke-miterlimit:10;}.cls-2{fill:#b4fdff;}.cls-3{fill:#101540;opacity:0.69;}</style></defs><title>titelskaerm_baggrund</title><rect class="cls-1" x="1" y="0.51" width="1078.9" height="1918.99"/><polygon class="cls-2" points="659.49 158.31 648.97 157.72 642.53 166.05 639.84 155.87 629.93 152.32 638.77 146.62 639.09 136.09 647.25 142.74 657.36 139.79 653.55 149.61 659.49 158.31"/><polygon class="cls-2" points="921.52 817.27 920.42 808.88 912.89 805.02 920.53 801.39 921.88 793.03 927.69 799.18 936.05 797.87 932.01 805.3 935.83 812.85 927.51 811.3 921.52 817.27"/><polygon class="cls-2" points="127.55 604.04 119.53 605.88 116.49 613.53 112.26 606.47 104.05 605.94 109.46 599.74 107.42 591.76 114.99 594.99 121.94 590.59 121.21 598.79 127.55 604.04"/><polygon class="cls-2" points="839.72 1124.19 825.34 1107.71 803.61 1110.21 814.84 1091.44 805.75 1071.55 827.07 1076.44 843.18 1061.64 845.12 1083.43 864.17 1094.18 844.05 1102.76 839.72 1124.19"/><polygon class="cls-2" points="971.63 109.92 958.03 107.45 948.29 117.25 946.43 103.55 934.1 97.31 946.55 91.32 948.68 77.66 958.23 87.65 971.87 85.45 965.32 97.62 971.63 109.92"/><polygon class="cls-2" points="124.49 146.46 131.26 123.17 115.91 104.39 140.15 103.63 153.27 83.22 161.48 106.05 184.94 112.22 165.77 127.08 167.15 151.3 147.09 137.66 124.49 146.46"/><polygon class="cls-2" points="134.86 965.8 136.28 944.16 119.26 930.71 140.28 925.38 147.81 905.03 159.38 923.38 181.06 924.24 167.19 940.92 173.06 961.81 152.91 953.76 134.86 965.8"/><polygon class="cls-2" points="1020.55 628.57 1007.66 615.28 989.41 618.35 998.07 601.99 989.5 585.58 1007.74 588.76 1020.7 575.54 1023.31 593.87 1039.89 602.11 1023.26 610.26 1020.55 628.57"/><path class="cls-3" d="M758.48,1540.1c65.2,26.44,136.52,61.67,202.33,36.77,15.54-5.88,30.27-15.06,46.83-16.34,39.85-3.1,67.85,39.33,77.44,78.13s11.64,82.42,38.66,111.87c19.54,21.31,48.56,30.81,72.23,47.41s42.86,48.13,29.19,73.61c-11.45,21.34-39.62,26.71-63.81,25.71-91.41-3.77-178.54-63-268.38-45.7-28.37,5.46-54.74,18.35-82.55,26.18-94,26.45-193.38-6.65-291-9.46-70.8-2-150.34,9.44-204.74-35.91-57.59-48-57.25-134.93-52.05-209.71C279,1388,619.33,1483.67,758.48,1540.1Z"/><path class="cls-3" d="M154.31,242.87c-48.79-1.55-98.69-5.72-145.54,8-52.68,15.4-97,52.19-149.59,68.06-15.46,26.61.23,62.64,25.9,79.62s58,19.68,88.69,21.06q62.42,2.81,124.92,1.16c35.53-.93,71.72-2.88,106,6.45,58.58,15.94,112.42,64.23,171.67,51,67.15-15,98.72-101.37,165.42-118.18,6.44-1.63,13.58-2.83,17.94-7.84,3.77-4.34,4.47-10.48,5-16.21,4.27-46.29,22-90.63-25.11-115.23-30-15.66-56.08-12.21-87.55-5.24C354,237.23,254.86,246.06,154.31,242.87Z"/><polygon class="cls-2" points="935.55 1568.04 927.53 1569.88 924.49 1577.53 920.26 1570.46 912.05 1569.94 917.46 1563.74 915.42 1555.76 922.99 1558.99 929.95 1554.59 929.21 1562.79 935.55 1568.04"/><polygon class="cls-2" points="393.55 1176.04 385.53 1177.88 382.49 1185.53 378.26 1178.46 370.05 1177.94 375.46 1171.74 373.42 1163.76 380.99 1166.99 387.94 1162.59 387.21 1170.79 393.55 1176.04"/><polygon class="cls-2" points="139.55 1814.04 131.53 1815.88 128.49 1823.53 124.26 1816.46 116.05 1815.94 121.46 1809.74 119.42 1801.76 126.99 1804.99 133.94 1800.59 133.21 1808.79 139.55 1814.04"/><polygon class="cls-2" points="111.86 1512.8 113.28 1491.16 96.26 1477.71 117.28 1472.38 124.81 1452.03 136.38 1470.38 158.06 1471.24 144.19 1487.92 150.06 1508.81 129.91 1500.77 111.86 1512.8"/><circle class="cls-2" cx="617" cy="1362.5" r="3.5"/><circle class="cls-2" cx="933" cy="1211.5" r="9.5"/><circle class="cls-2" cx="750.5" cy="747" r="5"/><circle class="cls-2" cx="188.5" cy="713" r="7"/><circle class="cls-2" cx="884" cy="206.5" r="5.5"/><circle class="cls-2" cx="362" cy="105.5" r="8.5"/><circle class="cls-2" cx="575" cy="1725.5" r="8.5"/><circle class="cls-2" cx="515" cy="1560.5" r="5.5"/></svg>
