<svg id="Layer_1" data-name="Layer 1" xmlns="http://www.w3.org/2000/svg" width="738" height="486" viewBox="0 0 738 486"><defs><style>.cls-1{fill:#b4fdff;}.cls-2{fill:#ff0;}.cls-3{fill:#fa0;}.cls-4{fill:#f92b2b;}.cls-5{fill:#efd460;}.cls-6{fill:#a7def9;}</style></defs><title>titelskaerm_tekst</title><path class="cls-1" d="M86.62,291.36a98.9,98.9,0,0,1-20.73-6.06q-.75-16.51-1.51-33a145.18,145.18,0,0,0,20.94,3.64,87.58,87.58,0,0,0,21.13,0c7.42-1.05,12.71-2.6,15.85-4.78s4.55-5.87,4.24-11c-.2-3.31-1.16-5.88-2.86-7.66a15.25,15.25,0,0,0-7.22-3.94,112.57,112.57,0,0,0-14.67-2.63,41.33,41.33,0,0,1-5-.44c-9.14-1-16.26-2.39-21.44-4.41s-8.94-5-11.33-9.1-3.73-9.78-4.07-17.23c-.57-13.29,3.25-26.23,11.49-39.92a119.71,119.71,0,0,1,38.28-38.41,102.72,102.72,0,0,1,21.81-10.48c7.77-2.63,14.34-3.87,19.6-3.93q1.38,23.58,2.75,47.15a55.53,55.53,0,0,0-35.7,4.47c-7.15,3.36-12.41,6.74-15.85,9.86a13.81,13.81,0,0,0-4.77,11.51c.17,2.86,1,4.79,2.6,5.84s3.9,1.58,7,1.64,8.37-.12,15.87-.21c10.71.07,19.18,2.43,25.26,6.65a35.57,35.57,0,0,1,13.15,17.36c2.68,7.26,4.33,16.53,5,27.62,1.06,18.49-2.94,33.67-12,44.43s-23,15.64-41.79,15.58A139.08,139.08,0,0,1,86.62,291.36Z"/><path class="cls-1" d="M173,85.8a499.18,499.18,0,0,1,71.79-25.08c16.77-4.48,29.93,1,39.12,15.77s14,35.67,14.65,61.78c.41,16.91-1.35,32.16-5.18,45.61s-9.44,24.11-16.82,32-16.07,12-26.11,12.82-19.77,1.64-29.63,2.6q1.4,29.57,2.77,59.15l-39.28.23Zm66.23,92.9c6-.88,10.5-4.39,13.51-10.71s4.35-14.4,4-24.24c-.38-10.56-2.17-18.53-5.36-23.81s-7.79-7.25-13.72-5.91q-11.08,2.5-22.06,5.42,1.47,31.29,2.93,62.57Q228.86,180.25,239.25,178.7Z"/><path class="cls-1" d="M470.81,262.55c-12.26-21.21-18.07-51.84-17.08-91,1-40.38,8.41-70.69,22.43-89.19s34.27-24,59.9-15.09a92.67,92.67,0,0,1,22.16,11.11,139.73,139.73,0,0,1,19.41,16.42q-1.46,25.91-2.89,51.82c-11.61-11.85-24.43-20.22-38.46-24-13.18-3.57-23.21-.93-29.88,7.73S496,154.38,495.16,176.09c-.79,21,1.88,36.7,7.92,46.81s15.39,15.51,28,16.6a72.17,72.17,0,0,0,39.3-7.86l-2.91,52.08c-13.33,6.46-27.3,10.11-41.92,10.1C501.22,293.89,483.08,283.83,470.81,262.55Z"/><path class="cls-1" d="M593.14,94.24a498.71,498.71,0,0,1,96.52,61.6Q689,171,688.3,186.22a567.31,567.31,0,0,0-59.07-31.77q-.87,14.34-1.73,28.69Q654.31,193,680.09,205l-1.56,32q-26.37-7.67-53.43-14-.87,14.36-1.73,28.7,31,4.26,61.58,9.59-.68,15.19-1.36,30.38-50.88-.56-101.85-.94Z"/><path class="cls-2" d="M418.54,321.88c0,30.08-17.71,94.33-40,94.33S337.74,352,337.74,321.88s18.09-54.48,40.4-54.48S418.54,291.79,418.54,321.88Z"/><path class="cls-3" d="M409.24,312.16c0,26.32-13.64,82.54-30.81,82.54S347,338.48,347,312.16s13.92-47.67,31.1-47.67S409.24,285.83,409.24,312.16Z"/><path class="cls-4" d="M312.11,296l-.86-127a88.38,88.38,0,0,1,5.3-31.09A138.64,138.64,0,0,1,333,106.26l45.24-64.74L424.2,110c5.38,9.77,7.14,13.34,8.3,18.21,1.73,7.26,0,.28,5,20.67,1.95,8,4.15,23.2,4.15,31.47l-1.38,115.39"/><ellipse class="cls-5" cx="377.98" cy="37.64" rx="11.34" ry="12.64"/><polyline class="cls-5" points="311.42 208.02 279.58 304.27 314.93 353.88"/><polyline class="cls-5" points="441.33 208.02 473.18 304.27 437.82 353.88"/><ellipse class="cls-6" cx="378.25" cy="140.84" rx="18.99" ry="21.17"/><polyline class="cls-5" points="376.43 205.74 391.96 295.5 364.53 296.09"/><polyline class="cls-5" points="378.77 357.5 364.39 295.5 391.96 295.17"/><path class="cls-1" d="M126,427.47q5-1,6.73-2.9t1.71-6.67V373.78c0-2.35-.27-3.93-.8-4.73s-1.63-1.2-3.31-1.2l-4,.12-.56-.92.91-6.61,15.73.12q3.76,0,16-.8l-.57,7.52q-4.34.57-5.76,1.77t-1.65,4.39q-1.49,26.91-1.48,45.26,0,4.67.91,6.26c.61,1.07,1.78,1.6,3.53,1.6.84,0,2.51-.11,5-.34l.45.68-1,7.18-4.11-.11L141,433.74q-5.25,0-15.73,1Z"/><path class="cls-1" d="M200.12,402.17q-11.35-16.87-11.35-16.65h-1l-.12,35.91c0,2,.29,3.33.86,4.05a3.66,3.66,0,0,0,3,1.08l5-.23.57.69L196,434.2c-1.07-.08-3-.17-5.93-.29s-5.78-.17-8.67-.17q-3.75,0-8.09.4l-5.59.51.8-7.52a8.42,8.42,0,0,0,5.13-2.11,7.37,7.37,0,0,0,1.71-5.07l1.37-45.26q0-3.65-1.82-5.13c-1.22-1-3.69-1.67-7.41-2.05l-.8-1,.8-6.49c.83.07,2.62.19,5.35.34s5.29.23,7.64.23q3,0,6.33-.17c2.24-.12,3.7-.21,4.39-.29q9.35,15.28,20.12,31.46t10.77,16h1.14L223,372.75a6.86,6.86,0,0,0-1-3.76,3.26,3.26,0,0,0-2.79-1.14l-4,.12-.34-.8.8-7.07c1.06.08,3,.17,5.87.29s5.72.17,8.6.17q3.42,0,7.7-.23c2.85-.15,4.73-.27,5.64-.34l-.57,7.52c-2.58.38-4.43,1.1-5.53,2.17a7,7,0,0,0-1.76,5l-1.49,60.65-11.51,1.48Q211.46,419,200.12,402.17Z"/><path class="cls-1" d="M263.5,408.78q-5.53-20.29-9.75-34a10.19,10.19,0,0,0-3-5.19,8.92,8.92,0,0,0-5.53-1.77l-.45-.8.79-6.72c1.07,0,3,0,5.82.11s5.66.12,8.55.12c3.42,0,7.16-.14,11.23-.4l7.92-.52.57.92-.46,6.72c-2.66.31-4.6.59-5.81.86a4.14,4.14,0,0,0-2.45,1.19,3.86,3.86,0,0,0-.63,2.4q0,2.5,4.45,21.49T280.88,419h1.71q2.75-7,8.67-26.11t5.92-21.66a2.92,2.92,0,0,0-1.31-2.73,9.51,9.51,0,0,0-4.61-.8H286.7l-.46-.8.68-6.95c1.07.07,3.4.19,7,.34s6.89.23,9.86.23,5.79,0,8.26-.12,4.12-.11,5-.11l-.8,7.41a7.56,7.56,0,0,0-4,1.54,11.54,11.54,0,0,0-2.28,4.39l-21.09,59.5-18.12,2.28Q269,429.08,263.5,408.78Z"/><path class="cls-1" d="M348.71,433.74l.57-6.72a49.25,49.25,0,0,0,5.64-.74,4.78,4.78,0,0,0,2.46-1.15,3.19,3.19,0,0,0,.68-2.22,20.52,20.52,0,0,0-.57-4l-2.4-8.78q-5.93-.22-10.48-.22-2.06,0-8.55.57l-2.4.22-2.85,8.78a16.21,16.21,0,0,0-.68,3.54,3.18,3.18,0,0,0,1.2,2.85,7.91,7.91,0,0,0,4.16.79h4.9l.57.8-.8,7q-1.59-.12-6.84-.4c-3.5-.19-6.76-.29-9.8-.29s-6.06,0-8.61.12-4.23.15-5.07.22l.8-7.41a7.84,7.84,0,0,0,4.33-2.16,16.12,16.12,0,0,0,3.19-5.59l20.4-57.79L356,359.3l1.25.57q1.71,6.51,7.12,26.62t9.3,32.32a12.45,12.45,0,0,0,3.19,5.81,9.89,9.89,0,0,0,5.81,2.05l.46.8-.8,6.61c-1-.07-2.85-.15-5.59-.22s-5.51-.12-8.32-.12q-6,0-11.8.4l-7.35.51Zm-4.1-32.6q1.25,0,8.43-.34l-6.72-25.42h-1.49l-8.43,25.76Z"/><path class="cls-1" d="M411,434.31q-5.64-.57-9.75-.57-3.76,0-8.43.46t-6,.68l.68-7.64q4.9-.8,6.61-2.85t1.71-6.84V374.12a11.77,11.77,0,0,0-.68-4.9c-.46-.84-1.41-1.25-2.85-1.25-.84,0-1.64,0-2.4.11s-1.25.11-1.48.11l-.57-1,.91-7c1.07,0,3,.06,5.93.18s5.7.17,8.44.17c3.34,0,6.84-.06,10.48-.17s6.16-.21,7.53-.29q11.4,0,19.72,4.11A29.44,29.44,0,0,1,453.59,376q4.44,7.64,4.44,18.24a43.74,43.74,0,0,1-5.07,21.2,36.47,36.47,0,0,1-14.08,14.53,40.09,40.09,0,0,1-20.4,5.19Q416.65,434.89,411,434.31Zm1.42-64.06a3,3,0,0,0-.79,2.16q-1.49,31.82-1.49,44.8a13.16,13.16,0,0,0,.8,5.19,4.52,4.52,0,0,0,2.91,2.45,20.69,20.69,0,0,0,6.1.69q10,0,15.33-7.07t5.3-20.75q0-14.48-6.33-21.26t-19.32-6.78A4.08,4.08,0,0,0,412.43,370.25Z"/><path class="cls-1" d="M524.83,412.2q-1.82,8.88-3.07,21.09l-1.14,1.25q-21.78-.8-35.46-.8a170.6,170.6,0,0,0-19.49,1.14l.8-7.64c3.19-.45,5.36-1.36,6.49-2.73s1.71-3.72,1.71-7.07l.12-43.43c0-2.51-.23-4.16-.68-5s-1.45-1.2-3-1.2a33,33,0,0,0-3.53.23l-.69-1,.91-6.84h2.29q8.08.35,18.35.35,25.41,0,34.65-1.37l.92,1.25c-.61,2.81-1.16,6.16-1.66,10s-.82,7.41-1,10.61l-10.14.68.23-4.56a9,9,0,0,0-1-4.84c-.65-.95-1.94-1.6-3.88-1.94a63.79,63.79,0,0,0-9.75-.52,24.64,24.64,0,0,0-4.1.23,2.07,2.07,0,0,0-1.54,1,7.12,7.12,0,0,0-.51,2.62l-.8,17.9,10.72.11c1.59,0,3.59-.09,6-.28s4.81-.44,7.24-.74l.91,1-1.59,9.69a18.46,18.46,0,0,1-2.28-.11q-8-.22-12.66-.23a71.18,71.18,0,0,0-8.78.68l-.22,16.3a14.37,14.37,0,0,0,.51,4.56,2.89,2.89,0,0,0,1.94,1.83,18.65,18.65,0,0,0,5,.45,49,49,0,0,0,10.88-.85,7.34,7.34,0,0,0,4.85-3.48c1-1.75,1.75-4.63,2.28-8.66l9.35-.8Z"/><path class="cls-1" d="M575.45,425l-9.92-20.06h-8.09l-.23,12.88a20.68,20.68,0,0,0,.57,5.76,3.44,3.44,0,0,0,2.16,2.34,19.82,19.82,0,0,0,5.48.68l.34.68-1,7q-2.06-.12-7.18-.23c-3.42-.08-6.58-.11-9.46-.11s-5.7.07-8.67.22-4.9.27-5.81.35l1-7.53c3.19-.38,5.33-1.21,6.44-2.51s1.65-3.57,1.65-6.84V373.44c0-2.21-.25-3.69-.74-4.45a3.24,3.24,0,0,0-2.91-1.14,22.89,22.89,0,0,0-2.39.12c-.76.07-1.26.11-1.48.11l-.69-.91,1-6.84c1.06,0,3,0,5.87.11s5.64.12,8.38.12c3,0,6.32-.06,9.86-.17s6-.21,7.35-.29q13,0,19.89,5t6.9,14.47a20.74,20.74,0,0,1-4,12.32,30.68,30.68,0,0,1-11.4,9.34l10,16.3a27.52,27.52,0,0,0,6.16,7.53,10.57,10.57,0,0,0,6.61,2.28l.8,1-.8,5.93-13.34,1.26Q580.46,435.57,575.45,425Zm-.57-33.57q3.07-3.13,3.08-9.74,0-6.27-4.22-9.35t-13-3.08a2,2,0,0,0-1.54.46,3.88,3.88,0,0,0-.51,2.05q-.69,11.75-.91,23.25L568,396.12A21.1,21.1,0,0,0,574.88,391.39Z"/><path class="cls-1" d="M617.74,434.14a48.43,48.43,0,0,1-7.35-2.11,18.18,18.18,0,0,1-2.91-1.25l-.91-1.6c.07-.53.24-1.69.51-3.47s.55-4.18.86-7.19.45-5.9.45-8.72l9.35-.68a32.5,32.5,0,0,0,1.14,9.8,8.07,8.07,0,0,0,3.82,4.85,16.69,16.69,0,0,0,7.69,1.42,14.7,14.7,0,0,0,8.78-2.39,7.92,7.92,0,0,0-.17-13,68.78,68.78,0,0,0-10.77-6.15l-2.63-1.26a51.81,51.81,0,0,1-13.33-8.66,15.64,15.64,0,0,1-4.79-11.86,19,19,0,0,1,3.88-11.68,25.24,25.24,0,0,1,10.77-8.09,40,40,0,0,1,15.67-2.91,59.6,59.6,0,0,1,9.29.68,59,59,0,0,1,6.84,1.43c1.71.49,2.8.82,3.25,1l.8,1.48c-.08.46-.31,1.61-.68,3.48s-.76,4.23-1.14,7.12-.69,5.85-.92,8.89l-8.43.69-1-.69c0-.23,0-.7.12-1.42s.11-1.62.11-2.68q0-5.13-2.56-7.3t-8.61-2.16a13.15,13.15,0,0,0-8,2.33,7.17,7.17,0,0,0-3.13,6,7.26,7.26,0,0,0,2,5,19.33,19.33,0,0,0,4.79,3.82q2.79,1.59,8.15,4.21,6.39,3.08,10.55,5.59a24.16,24.16,0,0,1,7,6.38A15.24,15.24,0,0,1,659,412.2a19.34,19.34,0,0,1-3.94,12,25.24,25.24,0,0,1-11.05,8,44.51,44.51,0,0,1-16.59,2.85A45.2,45.2,0,0,1,617.74,434.14Z"/></svg>
