<svg id="Layer_1" data-name="Layer 1" xmlns="http://www.w3.org/2000/svg" width="715" height="393" viewBox="0 0 715 393"><defs><style>.cls-1{fill:#b4fdff;}.cls-2{fill:#101540;}.cls-3{fill:#fff;stroke:#b4fdff;stroke-miterlimit:10;opacity:0.64;}</style></defs><title>you_won</title><rect class="cls-1" x="37.33" y="24.52" width="644.52" height="339.48" rx="82.96"/><path class="cls-2" d="M194.73,194.94l-17.36-30.6h16.76l8.68,16.76,8.68-16.76h16.76l-17.43,30.6v17.59H194.73Z"/><path class="cls-2" d="M231.25,207.4q-6.37-5.88-6.37-18.89,0-13.17,6.37-19t18.85-5.87q12.5,0,18.86,5.87t6.36,19q0,13-6.36,18.89t-18.86,5.87Q237.61,213.27,231.25,207.4ZM256.8,197q2.06-2.62,2.05-8.53c0-4.09-.67-7-2-8.68s-3.59-2.55-6.73-2.55-5.4.85-6.77,2.55-2.06,4.59-2.06,8.68.69,6.84,2.06,8.56,3.63,2.59,6.77,2.59S255.42,198.78,256.8,197Z"/><path class="cls-2" d="M290.69,211a17.79,17.79,0,0,1-11.26-17.28V164.34h16.09v27.53q0,7.78,7.33,7.79t7.33-7.79V164.34h16.09v29.41A17.79,17.79,0,0,1,315,211a34.13,34.13,0,0,1-24.32,0Z"/><path class="cls-2" d="M354.33,164.34H370l4.56,22,4-14.29v-7.71h13.09l6.36,22.07L403,164.34h15.71L407.6,212.53H393.31L386.8,190.6l-7,21.93H365.55Z"/><path class="cls-2" d="M423.24,207.4q-6.36-5.88-6.36-18.89,0-13.17,6.36-19t18.86-5.87q12.5,0,18.85,5.87t6.36,19q0,13-6.36,18.89t-18.85,5.87Q429.59,213.27,423.24,207.4ZM448.79,197q2.06-2.62,2.06-8.53c0-4.09-.67-7-2-8.68s-3.59-2.55-6.73-2.55-5.4.85-6.78,2.55-2.05,4.59-2.05,8.68.68,6.84,2.05,8.56,3.63,2.59,6.78,2.59S447.42,198.78,448.79,197Z"/><path class="cls-2" d="M471.8,164.34h13.54l15.87,22.22V164.34h16.08v48.19H503.6l-15.71-22.15v22.15H471.8Z"/><path class="cls-2" d="M521.78,201.3h16.69v11.23H521.78Zm.3-23.72V164.34h16.09v13.24l-.53,20.65H522.53Z"/><path class="cls-3" d="M150.69,60.48c19.6-5.86,43.38-11.71,55.44,4.81,1.29,1.77,3.18,11.46,2.34,13.49a6.6,6.6,0,0,1-3.42,3c-11.67,5.85-25.33,5.47-38.36,6.48-15.9,1.23-32.66,5.29-43.53,17-11,11.86-13.78,29.15-14.08,45.35-.1,5.23,0,10.58-1.62,15.57s-5.3,9.65-10.41,10.83C81.38,180.56,76.83,158.3,77,147.41c.17-12.12,5.5-24.74,11.22-35.27C101.39,87.81,124.06,68.45,150.69,60.48Z"/></svg>
